<svg xmlns="http://www.w3.org/2000/svg" viewBox="0 0 960 540" role="img" aria-label="雷达演示图">
  <defs>
    <radialGradient id="sea" cx="50%" cy="52%" r="68%">
      <stop offset="0" stop-color="#173f55"/>
      <stop offset="1" stop-color="#0b2534"/>
    </radialGradient>
    <linearGradient id="sweep" x1="0" y1="0" x2="1" y2="1">
      <stop stop-color="#79ffd3" stop-opacity=".56"/>
      <stop offset="1" stop-color="#79ffd3" stop-opacity="0"/>
    </linearGradient>
    <filter id="glow"><feGaussianBlur stdDeviation="9"/></filter>
  </defs>
  <rect width="960" height="540" fill="url(#sea)"/>
  <g fill="#294e5d" stroke="#3f6876" stroke-width="2">
    <path d="M75 105 177 55l92 23 74-32 89 45 75-15 55 58 100 15 76 74-31 79-91 19-53 68-100-16-83 45-66-56-109 3-65-74-91-32 14-84Z"/>
    <path d="m721 358 56-27 61 30-13 52-71 19-44-36Z"/>
  </g>
  <g transform="translate(494 275)" fill="none" stroke="#82c9d7" stroke-opacity=".34" stroke-width="2">
    <circle r="70"/><circle r="140"/><circle r="210"/><circle r="280"/>
    <path d="M-420 0h840M0-270v540M-300-190 300 190M300-190-300 190"/>
  </g>
  <path d="M494 275 742 105a300 300 0 0 1 47 253Z" fill="url(#sweep)"/>
  <g filter="url(#glow)" opacity=".82">
    <path d="M278 180c35-48 94-54 130-16 22 23 12 58-19 70-43 17-93 4-111-54Z" fill="#72dd6d"/>
    <path d="M615 239c28-39 79-44 109-10 31 34 4 80-44 83-50 3-91-34-65-73Z" fill="#f2d34f"/>
    <path d="M544 362c24-34 65-36 91-7 21 24 1 64-37 67-42 4-78-27-54-60Z" fill="#ff884f"/>
  </g>
  <g opacity=".9">
    <path d="M278 180c35-48 94-54 130-16 22 23 12 58-19 70-43 17-93 4-111-54Z" fill="#70e16f"/>
    <path d="M615 239c28-39 79-44 109-10 31 34 4 80-44 83-50 3-91-34-65-73Z" fill="#f8dc58"/>
    <path d="M544 362c24-34 65-36 91-7 21 24 1 64-37 67-42 4-78-27-54-60Z" fill="#ff8354"/>
  </g>
  <circle cx="494" cy="275" r="8" fill="#d9f8ff"/>
  <g fill="#c6e7ed" font-family="system-ui,sans-serif">
    <text x="30" y="42" font-size="18" font-weight="700">REGIONAL RADAR · DEMO</text>
    <text x="30" y="512" font-size="14" opacity=".72">GUI 本地演示资源 · 数据不代表实时天气</text>
  </g>
</svg>
